# xmcd
#
# Track frame offsets:
#	182
#	20557
#	36907
#	52957
#
# Disc length: 934 seconds
#
# Revision: 0
# Processed by: cddbd v1.5.1PL2 Copyright (c) Steve Scherf et al.
# Submitted via: audiograbber 1.83.01
#
DISCID=2b03a404
DTITLE=A little piece of heaven - The two Macs
DYEAR=1900
DGENRE=Country
TTITLE0=A little piece of heaven
TTITLE1=Auctioneer
TTITLE2=Stars
TTITLE3=Loving arms
EXTD=
EXTT0=
EXTT1=
EXTT2=
EXTT3=
PLAYORDER=
